<svg height="512.00025pt" viewBox="0 0 512.00025 512.00025" width="512.00025pt" xmlns="http://www.w3.org/2000/svg"><path d="m179.195312 30.703125c-40.9375-40.9375-107.550781-40.9375-148.488281 0-40.941406 40.941406-40.941406 107.554687 0 148.492187l151.046875 151.050782 148.492188-148.492188zm0 0" fill="#ffbea4"/><path d="m481.296875 332.804688-151.050781-151.050782-148.492188 148.492188 151.050782 151.050781c40.9375 40.9375 107.550781 40.9375 148.492187 0 40.9375-40.941406 40.9375-107.554687 0-148.492187zm0 0" fill="#ffa785"/><path d="m362.070312 383.28125-21.210937 21.210938-21.214844-21.210938 21.214844-21.214844zm0 0" fill="#ff7666"/><path d="m404.496094 340.851562-21.210938 21.214844-21.214844-21.214844 21.214844-21.210937zm0 0" fill="#ff7666"/><path d="m404.496094 425.707031-21.210938 21.210938-21.214844-21.210938 21.214844-21.214843zm0 0" fill="#ff7666"/><path d="m446.925781 383.28125-21.214843 21.210938-21.210938-21.210938 21.210938-21.214844zm0 0" fill="#ff7666"/><g fill="#ffa785"><path d="m107.507812 128.722656-21.210937 21.210938-21.214844-21.210938 21.214844-21.214844zm0 0"/><path d="m149.933594 86.292969-21.210938 21.214843-21.214844-21.214843 21.214844-21.210938zm0 0"/><path d="m149.9375 171.148438-21.214844 21.210937-21.210937-21.210937 21.210937-21.214844zm0 0"/><path d="m192.363281 128.71875-21.214843 21.214844-21.210938-21.214844 21.210938-21.210938zm0 0"/></g><path d="m30.707031 481.296875c40.9375 40.9375 107.550781 40.9375 148.488281 0l302.101563-302.101563c40.9375-40.9375 40.9375-107.550781 0-148.492187h-80l-370.589844 370.59375zm0 0" fill="#ff7666"/><path d="m332.804688 30.707031-302.101563 302.097657c-40.9375 40.9375-40.9375 107.550781 0 148.492187l450.59375-450.589844c-40.941406-40.941406-107.554687-40.941406-148.492187 0zm0 0" fill="#ffa785"/><path d="m383.277344 149.929688 21.214844 21.214843-21.214844 21.210938-21.210938-21.210938zm0 0" fill="#ff4547"/><path d="m340.851562 107.503906 21.214844 21.214844-21.214844 21.210938-21.214843-21.210938zm0 0" fill="#ff7666"/><path d="m425.703125 107.503906 21.214844 21.214844-21.214844 21.210938-21.210937-21.210938zm0 0" fill="#ff4547"/><path d="m383.277344 65.078125 21.214844 21.214844-21.214844 21.210937-21.210938-21.210937zm0 0" fill="#ff7666"/><path d="m128.722656 404.488281 21.214844 21.214844-21.214844 21.210937-21.210937-21.210937zm0 0" fill="#ff4547"/><path d="m86.296875 362.0625 21.210937 21.214844-21.210937 21.210937-21.214844-21.210937zm0 0" fill="#ff7666"/><path d="m171.148438 362.0625 21.214843 21.214844-21.214843 21.210937-21.210938-21.210937zm0 0" fill="#ff4547"/><path d="m128.722656 319.636719 21.210938 21.214843-21.210938 21.210938-21.214844-21.210938zm0 0" fill="#ff7666"/><path d="m181.753906 330.246094 31.820313 31.820312 148.492187-148.492187-31.820312-31.820313h-30l-118.492188 118.492188zm0 0" fill="#ffa785"/><path d="m149.933594 298.425781 148.488281-148.492187 31.820313 31.820312-148.492188 148.492188zm0 0" fill="#ffbea4"/></svg>