<svg height="512pt" viewBox="0 0 512 512" width="512pt" xmlns="http://www.w3.org/2000/svg"><path d="m0 0v512h512v-512zm482 30v332h-452v-332zm-452 452v-90h452v90zm0 0"/><path d="m422 422h30v30h-30zm0 0"/><path d="m362 422h30v30h-30zm0 0"/><path d="m302 422h30v30h-30zm0 0"/><path d="m60 422h30v30h-30zm0 0"/><path d="m452 60h-392v272h392zm-30 30v91h-66.554688l-38.777343-63.921875-60.667969 100.003906-60.667969-100.003906-38.777343 63.921875h-66.554688v-91zm-332 212v-91h83.445312l21.886719-36.078125 60.667969 99.996094 60.667969-99.996094 21.886719 36.078125h83.445312v91zm0 0"/></svg>